<svg xmlns="http://www.w3.org/2000/svg" xmlns:xlink="http://www.w3.org/1999/xlink" width="500" zoomAndPan="magnify" viewBox="0 0 375 374.999991" height="500" preserveAspectRatio="xMidYMid meet" version="1.0"><defs><g/><clipPath id="da0b136e02"><path d="M 99 243 L 148 243 L 148 291 L 99 291 Z M 99 243 " clip-rule="nonzero"/></clipPath><clipPath id="900562cf01"><path d="M 108.648438 242.40625 L 148.363281 252.734375 L 138.101562 292.179688 L 98.390625 281.851562 Z M 108.648438 242.40625 " clip-rule="nonzero"/></clipPath><clipPath id="ebae4929f6"><path d="M 114.070312 243.816406 L 142.941406 251.324219 C 144.378906 251.699219 145.609375 252.628906 146.359375 253.910156 C 147.113281 255.191406 147.324219 256.71875 146.953125 258.15625 L 139.511719 286.757812 C 139.140625 288.195312 138.207031 289.425781 136.925781 290.179688 C 135.644531 290.933594 134.117188 291.144531 132.679688 290.769531 L 103.8125 283.261719 C 102.371094 282.886719 101.140625 281.957031 100.390625 280.675781 C 99.636719 279.394531 99.425781 277.867188 99.800781 276.429688 L 107.238281 247.828125 C 107.613281 246.390625 108.542969 245.160156 109.824219 244.40625 C 111.105469 243.65625 112.632812 243.441406 114.070312 243.816406 Z M 114.070312 243.816406 " clip-rule="nonzero"/></clipPath><clipPath id="f9fcfa7923"><path d="M 99 243 L 148 243 L 148 291 L 99 291 Z M 99 243 " clip-rule="nonzero"/></clipPath><clipPath id="86a2ab0acf"><path d="M 108.648438 242.40625 L 148.570312 252.789062 L 138.375 291.984375 L 98.453125 281.601562 Z M 108.648438 242.40625 " clip-rule="nonzero"/></clipPath><clipPath id="9dcccb63d5"><path d="M 108.652344 242.40625 L 149.222656 252.960938 L 138.910156 292.609375 L 98.335938 282.054688 Z M 108.652344 242.40625 " clip-rule="nonzero"/></clipPath><clipPath id="01fdcc03ff"><path d="M 114.070312 243.816406 L 142.933594 251.324219 C 144.371094 251.695312 145.601562 252.628906 146.351562 253.90625 C 147.105469 255.1875 147.316406 256.714844 146.941406 258.152344 L 139.507812 286.746094 C 139.132812 288.183594 138.203125 289.414062 136.921875 290.167969 C 135.640625 290.917969 134.113281 291.132812 132.675781 290.757812 L 103.8125 283.25 C 102.375 282.875 101.148438 281.945312 100.394531 280.664062 C 99.640625 279.386719 99.429688 277.859375 99.804688 276.421875 L 107.242188 247.828125 C 107.613281 246.390625 108.542969 245.160156 109.824219 244.40625 C 111.105469 243.65625 112.632812 243.441406 114.070312 243.816406 Z M 114.070312 243.816406 " clip-rule="nonzero"/></clipPath></defs><g fill="#000000" fill-opacity="1"><g transform="translate(-7.47585, 254.454695)"><g><path d="M 213.203125 -142.8125 C 212.785156 -141.25 212.007812 -140.140625 210.875 -139.484375 C 209.738281 -138.828125 208.390625 -138.707031 206.828125 -139.125 L 124.71875 -161.015625 C 123.375 -161.367188 122.523438 -160.867188 122.171875 -159.515625 L 113.734375 -127.890625 C 113.378906 -126.535156 113.875 -125.679688 115.21875 -125.328125 L 162.671875 -112.671875 C 164.242188 -112.253906 165.359375 -111.476562 166.015625 -110.34375 C 166.671875 -109.207031 166.789062 -107.859375 166.375 -106.296875 L 154.703125 -62.546875 C 154.285156 -60.984375 153.507812 -59.867188 152.375 -59.203125 C 151.238281 -58.546875 149.882812 -58.425781 148.3125 -58.84375 L 100.859375 -71.5 C 99.515625 -71.851562 98.664062 -71.359375 98.3125 -70.015625 L 75.703125 14.78125 C 75.285156 16.351562 74.507812 17.46875 73.375 18.125 C 72.238281 18.78125 70.882812 18.894531 69.3125 18.46875 L 16.15625 4.3125 C 14.582031 3.882812 13.460938 3.101562 12.796875 1.96875 C 12.140625 0.832031 12.019531 -0.519531 12.4375 -2.09375 L 72.53125 -227.546875 C 72.945312 -229.109375 73.722656 -230.21875 74.859375 -230.875 C 76.003906 -231.53125 77.363281 -231.644531 78.9375 -231.21875 L 221.265625 -193.28125 C 222.828125 -192.863281 223.9375 -192.085938 224.59375 -190.953125 C 225.25 -189.816406 225.367188 -188.46875 224.953125 -186.90625 Z M 213.203125 -142.8125 "/></g></g></g><g fill="#38b6ff" fill-opacity="1"><g transform="translate(385.180956, 106.061118)"><g><path d="M -212.625 143.953125 C -212.207031 142.378906 -211.429688 141.257812 -210.296875 140.59375 C -209.160156 139.9375 -207.804688 139.8125 -206.234375 140.21875 L -124 161.703125 C -122.644531 162.054688 -121.789062 161.554688 -121.4375 160.203125 L -113.15625 128.515625 C -112.8125 127.160156 -113.316406 126.304688 -114.671875 125.953125 L -162.1875 113.546875 C -163.757812 113.128906 -164.878906 112.351562 -165.546875 111.21875 C -166.210938 110.09375 -166.335938 108.742188 -165.921875 107.171875 L -154.46875 63.34375 C -154.0625 61.769531 -153.289062 60.648438 -152.15625 59.984375 C -151.019531 59.316406 -149.664062 59.191406 -148.09375 59.609375 L -100.578125 72.015625 C -99.222656 72.367188 -98.367188 71.878906 -98.015625 70.546875 L -89.203125 36.828125 C -88.847656 35.472656 -89.347656 34.617188 -90.703125 34.265625 L -172.9375 12.78125 C -174.507812 12.375 -175.628906 11.601562 -176.296875 10.46875 C -176.960938 9.34375 -177.09375 7.992188 -176.6875 6.421875 L -165.140625 -37.75 C -164.734375 -39.320312 -163.960938 -40.4375 -162.828125 -41.09375 C -161.691406 -41.757812 -160.335938 -41.890625 -158.765625 -41.484375 L -16.171875 -4.21875 C -14.597656 -3.8125 -13.476562 -3.039062 -12.8125 -1.90625 C -12.15625 -0.78125 -12.03125 0.566406 -12.4375 2.140625 L -71.453125 228 C -71.859375 229.570312 -72.628906 230.691406 -73.765625 231.359375 C -74.898438 232.023438 -76.253906 232.15625 -77.828125 231.75 L -220.421875 194.484375 C -221.992188 194.078125 -223.109375 193.304688 -223.765625 192.171875 C -224.429688 191.035156 -224.5625 189.679688 -224.15625 188.109375 Z M -212.625 143.953125 "/></g></g></g><g clip-path="url(#da0b136e02)"><g clip-path="url(#900562cf01)"><g clip-path="url(#ebae4929f6)"><path fill="#38b6ff" d="M 108.648438 242.40625 L 148.363281 252.734375 L 138.101562 292.179688 L 98.390625 281.851562 Z M 108.648438 242.40625 " fill-opacity="1" fill-rule="nonzero"/></g></g></g><g clip-path="url(#f9fcfa7923)"><g clip-path="url(#86a2ab0acf)"><g clip-path="url(#9dcccb63d5)"><g clip-path="url(#01fdcc03ff)"><path stroke-linecap="butt" transform="matrix(0.725849, 0.188793, -0.188793, 0.725849, 108.650424, 242.406663)" fill="none" stroke-linejoin="miter" d="M 7.466973 0.0000430455 L 47.231977 0.000677174 C 49.211476 -0.00293476 51.112616 0.788789 52.509132 2.185348 C 53.912 3.585636 54.696819 5.485721 54.69539 7.466532 L 54.700065 46.858823 C 54.698636 48.839634 53.911953 50.739462 52.511664 52.14233 C 51.110065 53.540157 49.211291 54.330017 47.230481 54.328588 L 7.465476 54.327954 C 5.484666 54.326525 3.589878 53.538531 2.18701 52.138243 C 0.785453 50.742995 0.000634211 48.84291 0.0020629 46.862099 L 0.00242915 7.468497 C -0.00118279 5.488998 0.7855 3.589169 2.185789 2.186301 C 3.587388 0.788474 5.486162 -0.00138564 7.466973 0.0000430455 Z M 7.466973 0.0000430455 " stroke="#000000" stroke-width="8" stroke-opacity="1" stroke-miterlimit="4"/></g></g></g></g></svg>